<?xml version="1.0" encoding="utf-8"?><!-- Uploaded to: SVG Repo, www.svgrepo.com, Generator: SVG Repo Mixer Tools -->
<svg version="1.1" id="designs" xmlns="http://www.w3.org/2000/svg" xmlns:xlink="http://www.w3.org/1999/xlink" 
	 width="25px" height="25px" viewBox="0 0 32 32" xml:space="preserve" fill="current">

<path class="sketchy_een" d="M29.934,24.707c-0.076-0.892-0.193-1.784-0.353-2.666c-0.162-0.906-0.417-1.778-0.787-2.62
	c-0.337-0.771-0.75-1.501-1.155-2.238c-0.197-0.356-0.405-0.707-0.615-1.057c-0.249-0.411-0.538-0.793-0.837-1.169
	c-0.506-0.637-1.093-1.221-1.687-1.776c-0.666-0.623-1.352-1.225-2.142-1.689c-0.736-0.43-1.484-0.853-2.269-1.188
	c-0.427-0.183-0.857-0.37-1.305-0.5c-0.425-0.123-0.853-0.226-1.289-0.3c-0.442-0.076-0.882-0.152-1.32-0.25
	c-0.232-0.052-0.461-0.113-0.691-0.171c-0.13-1.452-0.15-2.915-0.25-4.371c-0.002-0.029-0.016-0.055-0.02-0.083
	c0.03-0.234-0.03-0.477-0.211-0.658c-0.148-0.148-0.353-0.234-0.563-0.234c-0.195,0-0.434,0.078-0.565,0.234
	c-0.249,0.3-0.528,0.573-0.799,0.855c-0.249,0.261-0.504,0.516-0.76,0.773c-0.551,0.553-1.133,1.077-1.694,1.622
	C10.058,7.768,9.509,8.327,8.94,8.868c-0.565,0.537-1.139,1.065-1.692,1.615c-0.795,0.785-1.525,1.632-2.327,2.411
	c-0.775,0.75-1.505,1.544-2.221,2.353c-0.169,0.03-0.332,0.093-0.456,0.216c-0.331,0.331-0.317,0.861,0,1.194
	c0.647,0.678,1.299,1.348,1.946,2.026c0.575,0.602,1.145,1.208,1.712,1.817c0.584,0.625,1.196,1.221,1.807,1.821
	c0.59,0.576,1.178,1.157,1.768,1.733c0.711,0.693,1.441,1.362,2.177,2.026c0.352,0.317,0.717,0.623,1.075,0.935
	c0.337,0.291,0.678,0.587,0.983,0.912c0.246,0.319,0.675,0.445,1.045,0.231c0.074-0.043,0.135-0.104,0.191-0.169
	c0.257-0.144,0.449-0.407,0.435-0.715c-0.035-0.837-0.027-1.677-0.033-2.516c-0.005-0.781-0.006-1.561-0.011-2.34
	c1.341-0.068,2.68-0.152,4.019,0.005c0.58,0.096,1.157,0.218,1.722,0.375c0.552,0.154,1.083,0.361,1.612,0.582
	c0.463,0.202,0.921,0.42,1.359,0.675c0.483,0.283,0.942,0.599,1.39,0.937c0.437,0.342,0.871,0.69,1.305,1.036
	c0.439,0.354,0.885,0.716,1.254,1.143c0.004,0.006,0.008,0.012,0.012,0.018c0.126,0.179,0.271,0.309,0.478,0.377
	c0.155,0.202,0.395,0.344,0.646,0.344c0.464,0,0.785-0.37,0.812-0.812c0.025-0.411,0.062-0.816,0.051-1.229
	C29.988,25.478,29.965,25.092,29.934,24.707z M27.49,24.452c-0.641-0.493-1.291-0.968-1.967-1.412
	c-0.744-0.485-1.552-0.849-2.368-1.19c-0.407-0.167-0.812-0.337-1.233-0.466c-0.417-0.126-0.839-0.228-1.266-0.325
	c-0.53-0.119-1.06-0.216-1.601-0.275c-0.447-0.047-0.894-0.061-1.342-0.061c-0.032,0-0.065,0-0.097,0
	c-0.985,0.006-1.967,0.043-2.951,0.074c-0.367,0.013-0.672,0.252-0.777,0.588c-0.103,0.136-0.176,0.295-0.174,0.475
	c0.01,0.516,0.023,1.032,0.029,1.548c0.006,0.428-0.006,0.857-0.012,1.285c-0.005,0.366-0.012,0.732-0.018,1.099
	c-0.155-0.134-0.31-0.269-0.465-0.404c-0.614-0.542-1.215-1.097-1.811-1.656c-0.598-0.563-1.174-1.141-1.757-1.718
	c-0.604-0.6-1.211-1.196-1.807-1.803c-0.358-0.366-0.709-0.74-1.056-1.116c-0.351-0.38-0.711-0.746-1.067-1.12
	c-0.592-0.621-1.165-1.261-1.744-1.895c0.418-0.481,0.832-0.965,1.268-1.429c0.549-0.581,1.132-1.128,1.669-1.72
	c0.547-0.6,1.11-1.18,1.696-1.743c0.559-0.538,1.132-1.063,1.691-1.603c0.391-0.378,0.773-0.765,1.167-1.139
	c0.405-0.388,0.818-0.768,1.231-1.145c0.313-0.286,0.622-0.577,0.929-0.87c0.018,0.285,0.044,0.57,0.058,0.856
	c0.034,0.74,0.077,1.478,0.154,2.216c-0.003,0.01-0.01,0.018-0.013,0.028C13.735,9.967,14,10.472,14.45,10.579
	c0.804,0.191,1.611,0.358,2.425,0.5c0.407,0.07,0.81,0.156,1.209,0.259c0.386,0.098,0.758,0.241,1.129,0.388
	c1.08,0.467,2.133,1.035,3.079,1.733c1.049,0.865,2.04,1.816,2.906,2.865c0.427,0.59,0.808,1.207,1.167,1.842
	c0.367,0.644,0.73,1.288,1.035,1.965c0.094,0.23,0.187,0.463,0.268,0.699c0.107,0.306,0.191,0.619,0.269,0.935
	c0.137,0.546,0.215,1.108,0.292,1.668c0.069,0.569,0.113,1.142,0.138,1.715C28.08,24.908,27.783,24.677,27.49,24.452z"/>
</svg>